PathFileType	4	(X/Y/Z)	34_2_93_p1_0-697_filt_butterworth.trc
DataRate	CameraRate	NumFrames	NumMarkers	Units	OrigDataRate	OrigDataStartFrame	OrigNumFrames
59.0	59.0	6	27	m	59.0	0	697
Frame#	Time	RHip			RKnee			RAnkle			RBigToe			RSmallToe			RHeel			LHip			LKnee			LAnkle			LBigToe			LSmallToe			LHeel			Neck			Head			Nose			RShoulder			RElbow			RWrist			RThumb			RIndex			RPinky			LShoulder			LElbow			LWrist			LThumb			LIndex			LPinky			
		X1	Y1	Z1	X2	Y2	Z2	X3	Y3	Z3	X4	Y4	Z4	X5	Y5	Z5	X6	Y6	Z6	X7	Y7	Z7	X8	Y8	Z8	X9	Y9	Z9	X10	Y10	Z10	X11	Y11	Z11	X12	Y12	Z12	X13	Y13	Z13	X14	Y14	Z14	X15	Y15	Z15	X16	Y16	Z16	X17	Y17	Z17	X18	Y18	Z18	X19	Y19	Z19	X20	Y20	Z20	X21	Y21	Z21	X22	Y22	Z22	X23	Y23	Z23	X24	Y24	Z24	X25	Y25	Z25	X26	Y26	Z26	X27	Y27	Z27	
0	0.0	0.39626138329114735	0.5081805730827416	0.966271252090755	0.4050367918516829	0.6593064394658033	1.3752583715535787	0.3724300521476913	0.8058874929905234	1.7589082497655677	0.3447491150991209	0.5823072966753767	1.7905882024827438	0.4006337142821135	0.619149907674008	1.7978448057177645	0.3483066043362335	0.8657393148109935	1.793748240225269	0.1552545853662533	0.5252984191997235	0.9849349437660367	0.16797300228721668	0.6454047175273554	1.3739408732264693	0.17631745468917068	0.7584970310323836	1.743104621788986	0.19654799057036978	0.5569668303123627	1.7699574138745184	0.13957949525466581	0.5963789677622873	1.7768547146110036	0.19165153786729114	0.817892313097742	1.7916540520696906	0.27222122974607094	0.42619855679711444	0.44221990666752253	0.27282817598820513	0.259447157274652	0.19909328751489094	0.26826590933155087	0.24257212301352685	0.35938545890766366	0.42691783057557003	0.3837558330123204	0.5107904958459313	0.5122743883641991	0.40386777802429186	0.7488653665622323	0.3566507427742666	0.2984790989647512	0.892778293011494	0.2547337980718731	0.2245829715537825	0.9148623281693746	0.24274003407560607	0.248493914546995	0.9477473157972613	0.25554640368918513	0.2539709033908173	0.9608109445621196	0.1163637078367086	0.3924922791801807	0.5096809837712521	0.034981404111631045	0.41840840299040016	0.7711103648657209	0.17717101110532488	0.2938051951984879	0.8879528213171478	0.29779482081870956	0.23311925042509501	0.9042684416825323	0.30571023373217615	0.25007902693139894	0.941349589482599	0.24712354156584065	0.28175536174768334	0.9791383929399216
1	0.0169491525423728	0.39524263209600985	0.5125633590036591	0.967145214743894	0.4049956900732718	0.6593446745024909	1.3750810567345946	0.36939584029411765	0.8051624259567103	1.7582933480793126	0.3470061476419591	0.5918220446398934	1.792554520118108	0.40171070545020393	0.614728614659324	1.796192519680205	0.3455079474041853	0.8639389017952189	1.7933222743157615	0.15550387010736427	0.524756433925152	0.9830793319447859	0.1658069113640274	0.6443894361021563	1.3736545278371193	0.17581459989029066	0.7572896292590006	1.741234632885039	0.19598428920225525	0.5578702403211688	1.7722893478485848	0.13950682584858115	0.5962111029759873	1.7765757074660884	0.19091832723685526	0.8174074734214785	1.7923622065361136	0.2721774889180775	0.4262616242717526	0.44218304489551086	0.2727934925223574	0.25968883462414155	0.20114350441861367	0.26807379620439237	0.24160657426698692	0.35719216516112756	0.42689762755350824	0.38382449696914334	0.5107594513563911	0.5121766074198224	0.4038451633411574	0.7490520254736089	0.3549838560594859	0.2975319427830502	0.8924391138898747	0.2551736100178999	0.22197570029288244	0.9179196768166604	0.24508239313031172	0.23941864165275076	0.9467369964533336	0.25789433711013715	0.27176668687126426	0.9640640981549125	0.11464940357386041	0.38563754720756405	0.5079308926978325	0.034981803197078463	0.4189050081515795	0.7700178750395599	0.1801796752318009	0.2863471975415146	0.8859481867510532	0.29871570641263284	0.2467101797102947	0.9080864206873425	0.3045320296100055	0.2508279855851731	0.9415141972499151	0.24697424210396307	0.2820366325424466	0.9787656532014379
2	0.0338983050847457	0.3946484377023281	0.5143031492977148	0.9682779134540851	0.40495834251413687	0.6593911796898348	1.3749810770493922	0.368715836921384	0.8027733285673049	1.7565194236856392	0.34822505315062047	0.5971291115255388	1.7930282183285409	0.402406382477754	0.6125586174006175	1.7953901555798577	0.34393908721450317	0.8632055445272018	1.7932059032923235	0.1555749260593753	0.5247286687843753	0.982637044851233	0.16529313659106817	0.6439536535531069	1.373793976684444	0.1753650985036921	0.757068434748919	1.7413491691771605	0.19567305554429662	0.5583855358508666	1.773651917964012	0.13945272763427438	0.5961808377696552	1.7764642192453004	0.19041412624076368	0.8177399666759992	1.794191617700394	0.27217239456156594	0.42630284135188967	0.4421688517276463	0.272764921933998	0.2597692703174517	0.20236531149179138	0.2679660809357918	0.2410671266883877	0.35594882652284754	0.4268995022190945	0.3839179523598211	0.5107126861973686	0.5125290036505099	0.4040141045934582	0.748707037980833	0.35321411482712733	0.2963737985679796	0.8911483474404668	0.25663796634293917	0.21671114819817783	0.916907270650921	0.24707130673353803	0.2309571412304218	0.9451905294983779	0.2595991803839716	0.28061612157300486	0.9652986954439209	0.11367397029291126	0.38155958429770376	0.507497180192513	0.03477366059322108	0.41789763318011824	0.7695519081147669	0.18256580201717748	0.2805454007594273	0.8841977608839738	0.3015910977327686	0.2530544698576864	0.9081759924743655	0.3060048200307611	0.25144620364156306	0.9410869803983353	0.2468539906647787	0.28196779806778427	0.9778679231275821
3	0.0508474576271186	0.3945214787212204	0.5120589050095109	0.9693234342458625	0.40491651979933385	0.6594637022551806	1.3749424998216688	0.37092655852080414	0.7979140293461124	1.7537572142651823	0.3484226429769387	0.5981908489506129	1.7923818022235816	0.40259129359383683	0.6123271754889107	1.7953433434369919	0.34395461334445715	0.8646829796174074	1.793755550414324	0.15546329994618435	0.5251063353767232	0.9835164108856271	0.1663872458132338	0.6440658392832651	1.3747477525450287	0.17503750594960196	0.7578740896154785	1.7433957126803081	0.195631079515514	0.5584862084693755	1.7739756274943614	0.13941708864935304	0.5963142062091152	1.7765409841396904	0.1901742306499924	0.8185159086254361	1.7962477744097196	0.272227623946284	0.42633105643658425	0.44216955417904064	0.27274548844347296	0.2597018539994889	0.20270088883148424	0.2679235687847769	0.24109505774511997	0.355941516755423	0.4269220913712262	0.38401908765213	0.5106591466709243	0.5135660568894609	0.40435124849995374	0.7472189055943079	0.35170511231671925	0.2952321204397557	0.8886113330074256	0.2585609568590989	0.2108750052919719	0.9107857358590075	0.24819374408552114	0.22651480668126725	0.9432077380769576	0.26005412609010803	0.2820660933031852	0.9649505201256471	0.11347339234745608	0.3804040748535114	0.5083209193834961	0.03424567064013627	0.4145469349841099	0.7698889985153851	0.18445527993239796	0.27593372466260846	0.8828314625622147	0.30675012219755	0.2521744866322076	0.9038883044332304	0.31092791797759195	0.2519580914817252	0.9396203859741483	0.24690954742134785	0.2820276561586582	0.9764937703207484
4	0.0677966101694915	0.3944123026674856	0.5077215378374333	0.9696930324717175	0.40486283359062614	0.6595584584131762	1.3749060053447946	0.3743479944054299	0.7921416244375106	1.7515844754154348	0.3482329812012232	0.5975065399957195	1.7917385460148183	0.4027101972428311	0.6110739216268908	1.7948936106047415	0.3451584438267154	0.868940583528583	1.7951657287937763	0.15530021557912282	0.5254091968073021	0.9846106314702713	0.16779398844225954	0.6443120900527141	1.376303965555717	0.17491933068210855	0.7590390244385166	1.7458926958207046	0.19570644138916604	0.5583990294200943	1.7738092501939904	0.13939155859498767	0.596512526550337	1.7766922756716548	0.19010243744565045	0.8190340041254938	1.7973377450175725	0.2723191733183266	0.4263591670609365	0.4421669515805694	0.2727364951070376	0.2596166598381226	0.20261233208198037	0.2679009756967031	0.2415780741752337	0.3568757998580631	0.4269445084163426	0.38408460852074555	0.5106305053623933	0.5149362421743428	0.40452354022961023	0.7443988985627232	0.35079710785704793	0.2944221385814105	0.8855201099342656	0.2599282590232427	0.2076319132629696	0.9024206611379393	0.24841389548962864	0.22871392315203254	0.941432403493174	0.25925049659303373	0.28310200130052465	0.9645769058236723	0.11360971671932849	0.380573872852049	0.5093872067788213	0.03354486094293405	0.40996959905313823	0.7704207134445127	0.18600598946127125	0.2718214044985426	0.881602427763668	0.31232818392409667	0.24873183995776554	0.8978592884492882	0.31704064688372713	0.2524082354716245	0.9372742775943841	0.24733999466124962	0.2831824595007175	0.975124637456586
5	0.0847457627118644	0.3940424671200391	0.5049025088352728	0.9694793145490521	0.4048055716431973	0.659642838354011	1.3748471881019506	0.376789321313032	0.788226461139083	1.7511074192868166	0.34808238458174656	0.5968532404359799	1.7915120291173456	0.40360481510684443	0.6079938751663628	1.7935346374262395	0.34674633874586697	0.8745452258829631	1.7970009152910624	0.1551873040764762	0.5254230874768747	0.9852212620885659	0.16856193675374959	0.6444411620804004	1.3776155436360857	0.1749713545405785	0.7598853394884867	1.7475501944981666	0.19577222812537035	0.5583055724894309	1.7736094026248421	0.1393731180047477	0.5966527526967379	1.7768000364552956	0.19011147032398193	0.8192091548637075	1.7975395495408264	0.2723070276059962	0.4263523485215892	0.44217165703335287	0.2727372668253976	0.2595939783289458	0.20247772700847277	0.26792387482310076	0.24223275753421125	0.3581255307803	0.42694887897005585	0.38409100030488486	0.5106459127756002	0.5159245002923615	0.4043066459705861	0.7409892612768157	0.35040986056550727	0.29394844188468183	0.8830072473503399	0.26065446138209997	0.20806381743808955	0.8969388745763943	0.24823262487203646	0.23610706046153113	0.9406234122759164	0.25810832408991796	0.28715689517108306	0.9648737749677989	0.11374392330410149	0.3808403528412843	0.5100073695414522	0.032985384182958336	0.40653925880994257	0.7703071050357571	0.18692873821626127	0.2687876927060835	0.880132584248751	0.316322467841459	0.2458432043246357	0.893080707151224	0.3212005698287804	0.252727988697839	0.9349329957262258	0.24817108454381898	0.2857861650734938	0.9741090788328426
